<mxfile host="app.diagrams.net" agent="Mozilla/5.0 (Macintosh; Intel Mac OS X 10_15_7) AppleWebKit/537.36 (KHTML, like Gecko) Chrome/135.0.0.0 Safari/537.36" version="26.2.12">
  <diagram name="第 1 页" id="lKEN_KKkNgOvMTBY1116">
    <mxGraphModel dx="1857" dy="4379" grid="1" gridSize="10" guides="1" tooltips="1" connect="1" arrows="1" fold="1" page="1" pageScale="1" pageWidth="2339" pageHeight="3300" math="0" shadow="0">
      <root>
        <mxCell id="0" />
        <mxCell id="1" parent="0" />
        <mxCell id="EorWX3A0NwsQT6hADOKM-99" value="" style="rounded=1;whiteSpace=wrap;html=1;fillColor=#b1ddf0;strokeColor=#10739e;" vertex="1" parent="1">
          <mxGeometry x="580" y="80" width="610" height="585" as="geometry" />
        </mxCell>
        <mxCell id="EorWX3A0NwsQT6hADOKM-89" value="" style="rounded=1;whiteSpace=wrap;html=1;fillColor=#ffe6cc;strokeColor=#d79b00;" vertex="1" parent="1">
          <mxGeometry x="605" y="160" width="225" height="490" as="geometry" />
        </mxCell>
        <mxCell id="EorWX3A0NwsQT6hADOKM-86" value="" style="rounded=1;whiteSpace=wrap;html=1;fillColor=#fff2cc;strokeColor=#d6b656;" vertex="1" parent="1">
          <mxGeometry x="1250" y="40" width="520" height="730" as="geometry" />
        </mxCell>
        <mxCell id="EorWX3A0NwsQT6hADOKM-84" value="&lt;div&gt;&lt;div&gt;&lt;br&gt;&lt;/div&gt;&lt;/div&gt;" style="rounded=1;whiteSpace=wrap;html=1;fillColor=#ffff88;strokeColor=#36393d;" vertex="1" parent="1">
          <mxGeometry x="1270" y="150" width="480" height="360" as="geometry" />
        </mxCell>
        <mxCell id="EorWX3A0NwsQT6hADOKM-83" value="&lt;font style=&quot;font-size: 16px;&quot;&gt;&lt;b&gt;StaticExecutorPool&lt;/b&gt;&lt;/font&gt;&lt;div&gt;&lt;font style=&quot;font-size: 14px;&quot;&gt;Online/Sync&lt;br&gt;&lt;/font&gt;&lt;div&gt;&lt;b&gt;&lt;br&gt;&lt;/b&gt;&lt;/div&gt;&lt;div&gt;&lt;b&gt;&lt;br&gt;&lt;/b&gt;&lt;/div&gt;&lt;div&gt;&lt;b&gt;&lt;br&gt;&lt;/b&gt;&lt;/div&gt;&lt;div&gt;&lt;b&gt;&lt;br&gt;&lt;/b&gt;&lt;/div&gt;&lt;div&gt;&lt;b&gt;&lt;br&gt;&lt;/b&gt;&lt;/div&gt;&lt;div&gt;&lt;b&gt;&lt;br&gt;&lt;/b&gt;&lt;/div&gt;&lt;div&gt;&lt;b&gt;&lt;br&gt;&lt;/b&gt;&lt;/div&gt;&lt;div&gt;&lt;b&gt;&lt;br&gt;&lt;/b&gt;&lt;/div&gt;&lt;div&gt;&lt;b&gt;&lt;br&gt;&lt;/b&gt;&lt;/div&gt;&lt;div&gt;&lt;b&gt;&lt;br&gt;&lt;/b&gt;&lt;/div&gt;&lt;div&gt;&lt;b&gt;&lt;br&gt;&lt;/b&gt;&lt;/div&gt;&lt;div&gt;&lt;b&gt;&lt;br&gt;&lt;/b&gt;&lt;/div&gt;&lt;div&gt;&lt;b&gt;&lt;br&gt;&lt;/b&gt;&lt;/div&gt;&lt;div&gt;&lt;br&gt;&lt;/div&gt;&lt;/div&gt;" style="rounded=1;whiteSpace=wrap;html=1;fillColor=#ffff88;strokeColor=#36393d;" vertex="1" parent="1">
          <mxGeometry x="1270" y="516" width="480" height="244" as="geometry" />
        </mxCell>
        <mxCell id="EorWX3A0NwsQT6hADOKM-72" value="" style="edgeStyle=orthogonalEdgeStyle;rounded=0;orthogonalLoop=1;jettySize=auto;html=1;" edge="1" parent="1" source="EorWX3A0NwsQT6hADOKM-55" target="EorWX3A0NwsQT6hADOKM-58">
          <mxGeometry relative="1" as="geometry">
            <Array as="points">
              <mxPoint x="1560" y="370" />
              <mxPoint x="1560" y="370" />
            </Array>
          </mxGeometry>
        </mxCell>
        <mxCell id="EorWX3A0NwsQT6hADOKM-74" value="Update" style="edgeLabel;html=1;align=center;verticalAlign=middle;resizable=0;points=[];" vertex="1" connectable="0" parent="EorWX3A0NwsQT6hADOKM-72">
          <mxGeometry x="0.0667" y="-1" relative="1" as="geometry">
            <mxPoint as="offset" />
          </mxGeometry>
        </mxCell>
        <mxCell id="EorWX3A0NwsQT6hADOKM-55" value="" style="rounded=1;whiteSpace=wrap;html=1;fillColor=light-dark(#f4e26c, #ededed);" vertex="1" parent="1">
          <mxGeometry x="1580" y="190" width="160" height="310" as="geometry" />
        </mxCell>
        <mxCell id="EorWX3A0NwsQT6hADOKM-101" value="" style="edgeStyle=orthogonalEdgeStyle;rounded=0;orthogonalLoop=1;jettySize=auto;html=1;" edge="1" parent="1" source="EorWX3A0NwsQT6hADOKM-48">
          <mxGeometry relative="1" as="geometry">
            <mxPoint x="720" y="200" as="targetPoint" />
            <Array as="points">
              <mxPoint x="1030" y="130" />
              <mxPoint x="720" y="130" />
            </Array>
          </mxGeometry>
        </mxCell>
        <mxCell id="EorWX3A0NwsQT6hADOKM-102" value="Query" style="edgeLabel;html=1;align=center;verticalAlign=middle;resizable=0;points=[];" vertex="1" connectable="0" parent="EorWX3A0NwsQT6hADOKM-101">
          <mxGeometry x="0.0522" y="-2" relative="1" as="geometry">
            <mxPoint as="offset" />
          </mxGeometry>
        </mxCell>
        <mxCell id="EorWX3A0NwsQT6hADOKM-48" value="" style="rounded=0;whiteSpace=wrap;html=1;fillColor=#fff2cc;strokeColor=#d6b656;" vertex="1" parent="1">
          <mxGeometry x="890" y="210" width="280" height="350" as="geometry" />
        </mxCell>
        <mxCell id="EorWX3A0NwsQT6hADOKM-114" value="" style="edgeStyle=orthogonalEdgeStyle;rounded=0;orthogonalLoop=1;jettySize=auto;html=1;" edge="1" parent="1" source="EorWX3A0NwsQT6hADOKM-7" target="EorWX3A0NwsQT6hADOKM-12">
          <mxGeometry relative="1" as="geometry" />
        </mxCell>
        <mxCell id="EorWX3A0NwsQT6hADOKM-120" value="&lt;font style=&quot;font-size: 14px;&quot;&gt;Http&lt;/font&gt;" style="edgeLabel;html=1;align=center;verticalAlign=middle;resizable=0;points=[];" vertex="1" connectable="0" parent="EorWX3A0NwsQT6hADOKM-114">
          <mxGeometry x="-0.0941" relative="1" as="geometry">
            <mxPoint as="offset" />
          </mxGeometry>
        </mxCell>
        <mxCell id="EorWX3A0NwsQT6hADOKM-7" value="&lt;b&gt;&lt;font style=&quot;font-size: 16px;&quot;&gt;App-1&lt;/font&gt;&lt;/b&gt;" style="rounded=1;whiteSpace=wrap;html=1;fillColor=#b0e3e6;strokeColor=#0e8088;" vertex="1" parent="1">
          <mxGeometry x="160" y="190" width="120" height="60" as="geometry" />
        </mxCell>
        <mxCell id="EorWX3A0NwsQT6hADOKM-8" value="&lt;b&gt;&lt;font style=&quot;font-size: 16px;&quot;&gt;App-2&lt;/font&gt;&lt;/b&gt;" style="rounded=1;whiteSpace=wrap;html=1;fillColor=#b0e3e6;strokeColor=#0e8088;" vertex="1" parent="1">
          <mxGeometry x="160" y="290" width="120" height="60" as="geometry" />
        </mxCell>
        <mxCell id="EorWX3A0NwsQT6hADOKM-9" value="&lt;b&gt;&lt;font style=&quot;font-size: 16px;&quot;&gt;AsyncGateway&lt;/font&gt;&lt;/b&gt;" style="rounded=1;whiteSpace=wrap;html=1;fillColor=#b1ddf0;strokeColor=#10739e;" vertex="1" parent="1">
          <mxGeometry x="160" y="389" width="120" height="60" as="geometry" />
        </mxCell>
        <mxCell id="EorWX3A0NwsQT6hADOKM-126" value="" style="edgeStyle=orthogonalEdgeStyle;rounded=0;orthogonalLoop=1;jettySize=auto;html=1;entryX=-0.002;entryY=0.591;entryDx=0;entryDy=0;entryPerimeter=0;" edge="1" parent="1" source="EorWX3A0NwsQT6hADOKM-11" target="EorWX3A0NwsQT6hADOKM-18">
          <mxGeometry relative="1" as="geometry" />
        </mxCell>
        <mxCell id="EorWX3A0NwsQT6hADOKM-11" value="&lt;b&gt;&lt;font style=&quot;font-size: 16px;&quot;&gt;RemoteQueue&lt;/font&gt;&lt;/b&gt;" style="rounded=1;whiteSpace=wrap;html=1;fillColor=#ffcc99;strokeColor=#36393d;" vertex="1" parent="1">
          <mxGeometry x="390" y="345" width="120" height="60" as="geometry" />
        </mxCell>
        <mxCell id="EorWX3A0NwsQT6hADOKM-125" value="" style="edgeStyle=orthogonalEdgeStyle;rounded=0;orthogonalLoop=1;jettySize=auto;html=1;entryX=0.005;entryY=0.283;entryDx=0;entryDy=0;entryPerimeter=0;" edge="1" parent="1" source="EorWX3A0NwsQT6hADOKM-12" target="EorWX3A0NwsQT6hADOKM-13">
          <mxGeometry relative="1" as="geometry" />
        </mxCell>
        <mxCell id="EorWX3A0NwsQT6hADOKM-12" value="&lt;b&gt;&lt;font style=&quot;font-size: 16px;&quot;&gt;Http&lt;/font&gt;&lt;/b&gt;" style="rounded=1;whiteSpace=wrap;html=1;fillColor=#cdeb8b;strokeColor=#36393d;" vertex="1" parent="1">
          <mxGeometry x="390" y="190" width="120" height="60" as="geometry" />
        </mxCell>
        <mxCell id="EorWX3A0NwsQT6hADOKM-35" value="" style="edgeStyle=orthogonalEdgeStyle;rounded=0;orthogonalLoop=1;jettySize=auto;html=1;entryX=0.5;entryY=0;entryDx=0;entryDy=0;" edge="1" parent="1" source="EorWX3A0NwsQT6hADOKM-13" target="EorWX3A0NwsQT6hADOKM-18">
          <mxGeometry relative="1" as="geometry" />
        </mxCell>
        <mxCell id="EorWX3A0NwsQT6hADOKM-36" value="no, query" style="edgeLabel;html=1;align=center;verticalAlign=middle;resizable=0;points=[];" vertex="1" connectable="0" parent="EorWX3A0NwsQT6hADOKM-35">
          <mxGeometry x="-0.05" y="-2" relative="1" as="geometry">
            <mxPoint as="offset" />
          </mxGeometry>
        </mxCell>
        <mxCell id="EorWX3A0NwsQT6hADOKM-92" value="" style="edgeStyle=orthogonalEdgeStyle;rounded=0;orthogonalLoop=1;jettySize=auto;html=1;entryX=-0.002;entryY=0.072;entryDx=0;entryDy=0;entryPerimeter=0;" edge="1" parent="1" source="EorWX3A0NwsQT6hADOKM-13" target="EorWX3A0NwsQT6hADOKM-48">
          <mxGeometry relative="1" as="geometry" />
        </mxCell>
        <mxCell id="EorWX3A0NwsQT6hADOKM-96" value="Execute" style="edgeLabel;html=1;align=center;verticalAlign=middle;resizable=0;points=[];" vertex="1" connectable="0" parent="EorWX3A0NwsQT6hADOKM-92">
          <mxGeometry x="0.1753" y="-3" relative="1" as="geometry">
            <mxPoint as="offset" />
          </mxGeometry>
        </mxCell>
        <mxCell id="EorWX3A0NwsQT6hADOKM-13" value="&lt;font style=&quot;font-size: 14px;&quot;&gt;SyncQueue/&lt;font style=&quot;color: rgb(255, 0, 0);&quot;&gt;Online&lt;/font&gt;&lt;/font&gt;&lt;div&gt;&lt;font style=&quot;color: rgb(255, 153, 51);&quot;&gt;&lt;br&gt;&lt;/font&gt;&lt;/div&gt;&lt;div&gt;&lt;font style=&quot;color: rgb(255, 153, 51);&quot;&gt;&lt;br&gt;&lt;/font&gt;&lt;/div&gt;&lt;div&gt;&lt;font style=&quot;color: rgb(255, 153, 51);&quot;&gt;&lt;br&gt;&lt;/font&gt;&lt;/div&gt;" style="rounded=1;whiteSpace=wrap;html=1;fillColor=#d5e8d4;strokeColor=#82b366;" vertex="1" parent="1">
          <mxGeometry x="630" y="200" width="180" height="70" as="geometry" />
        </mxCell>
        <mxCell id="EorWX3A0NwsQT6hADOKM-16" value="&lt;b&gt;1&lt;/b&gt;" style="strokeWidth=2;html=1;shape=mxgraph.flowchart.multi-document;whiteSpace=wrap;" vertex="1" parent="1">
          <mxGeometry x="760" y="240" width="18" height="20" as="geometry" />
        </mxCell>
        <mxCell id="EorWX3A0NwsQT6hADOKM-17" value="&lt;b&gt;2&lt;/b&gt;" style="strokeWidth=2;html=1;shape=mxgraph.flowchart.multi-document;whiteSpace=wrap;" vertex="1" parent="1">
          <mxGeometry x="730" y="240" width="18" height="20" as="geometry" />
        </mxCell>
        <mxCell id="EorWX3A0NwsQT6hADOKM-38" value="" style="edgeStyle=orthogonalEdgeStyle;rounded=0;orthogonalLoop=1;jettySize=auto;html=1;" edge="1" parent="1" source="EorWX3A0NwsQT6hADOKM-18" target="EorWX3A0NwsQT6hADOKM-37">
          <mxGeometry relative="1" as="geometry" />
        </mxCell>
        <mxCell id="EorWX3A0NwsQT6hADOKM-94" value="" style="edgeStyle=orthogonalEdgeStyle;rounded=0;orthogonalLoop=1;jettySize=auto;html=1;entryX=0.005;entryY=0.442;entryDx=0;entryDy=0;entryPerimeter=0;" edge="1" parent="1" source="EorWX3A0NwsQT6hADOKM-18" target="EorWX3A0NwsQT6hADOKM-48">
          <mxGeometry relative="1" as="geometry" />
        </mxCell>
        <mxCell id="EorWX3A0NwsQT6hADOKM-97" value="Execute" style="edgeLabel;html=1;align=center;verticalAlign=middle;resizable=0;points=[];" vertex="1" connectable="0" parent="EorWX3A0NwsQT6hADOKM-94">
          <mxGeometry x="0.0967" y="-4" relative="1" as="geometry">
            <mxPoint as="offset" />
          </mxGeometry>
        </mxCell>
        <mxCell id="EorWX3A0NwsQT6hADOKM-18" value="&lt;div&gt;&lt;font style=&quot;font-size: 14px;&quot;&gt;&lt;font style=&quot;color: rgb(0, 0, 0);&quot;&gt;AsyncLocalQueue&lt;/font&gt;&lt;font style=&quot;color: rgb(255, 153, 51);&quot;&gt;/&lt;/font&gt;&lt;font style=&quot;color: rgb(255, 0, 0);&quot;&gt;NearLine&lt;/font&gt;&lt;/font&gt;&lt;/div&gt;&lt;div&gt;&lt;font style=&quot;color: rgb(255, 153, 51);&quot;&gt;&lt;br&gt;&lt;/font&gt;&lt;/div&gt;&lt;div&gt;&lt;font style=&quot;color: rgb(255, 153, 51);&quot;&gt;&lt;br&gt;&lt;/font&gt;&lt;/div&gt;&lt;div&gt;&lt;font style=&quot;color: rgb(255, 153, 51);&quot;&gt;&lt;br&gt;&lt;/font&gt;&lt;/div&gt;&lt;div&gt;&lt;font style=&quot;color: rgb(255, 153, 51);&quot;&gt;&lt;br&gt;&lt;/font&gt;&lt;/div&gt;&lt;div&gt;&lt;font style=&quot;color: rgb(255, 153, 51);&quot;&gt;&lt;br&gt;&lt;/font&gt;&lt;/div&gt;" style="rounded=1;whiteSpace=wrap;html=1;fillColor=#fff2cc;strokeColor=#d6b656;" vertex="1" parent="1">
          <mxGeometry x="630" y="310" width="180" height="110" as="geometry" />
        </mxCell>
        <mxCell id="EorWX3A0NwsQT6hADOKM-19" value="&lt;b&gt;1&lt;/b&gt;" style="strokeWidth=2;html=1;shape=mxgraph.flowchart.multi-document;whiteSpace=wrap;" vertex="1" parent="1">
          <mxGeometry x="785" y="346" width="18" height="20" as="geometry" />
        </mxCell>
        <mxCell id="EorWX3A0NwsQT6hADOKM-20" value="&lt;b&gt;2&lt;/b&gt;" style="strokeWidth=2;html=1;shape=mxgraph.flowchart.multi-document;whiteSpace=wrap;" vertex="1" parent="1">
          <mxGeometry x="755" y="346" width="18" height="20" as="geometry" />
        </mxCell>
        <mxCell id="EorWX3A0NwsQT6hADOKM-22" value="&lt;b&gt;3&lt;/b&gt;" style="strokeWidth=2;html=1;shape=mxgraph.flowchart.multi-document;whiteSpace=wrap;" vertex="1" parent="1">
          <mxGeometry x="725" y="346" width="18" height="20" as="geometry" />
        </mxCell>
        <mxCell id="EorWX3A0NwsQT6hADOKM-23" value="&lt;b&gt;4&lt;/b&gt;" style="strokeWidth=2;html=1;shape=mxgraph.flowchart.multi-document;whiteSpace=wrap;" vertex="1" parent="1">
          <mxGeometry x="695" y="346" width="20" height="20" as="geometry" />
        </mxCell>
        <mxCell id="EorWX3A0NwsQT6hADOKM-24" value="&lt;b&gt;5&lt;/b&gt;" style="strokeWidth=2;html=1;shape=mxgraph.flowchart.multi-document;whiteSpace=wrap;" vertex="1" parent="1">
          <mxGeometry x="665" y="346" width="18" height="20" as="geometry" />
        </mxCell>
        <mxCell id="EorWX3A0NwsQT6hADOKM-25" value="&lt;b&gt;6&lt;/b&gt;" style="strokeWidth=2;html=1;shape=mxgraph.flowchart.multi-document;whiteSpace=wrap;" vertex="1" parent="1">
          <mxGeometry x="637" y="346" width="18" height="20" as="geometry" />
        </mxCell>
        <mxCell id="EorWX3A0NwsQT6hADOKM-26" value="&lt;font style=&quot;font-size: 14px;&quot;&gt;QueueDownLoader&lt;/font&gt;" style="rounded=0;whiteSpace=wrap;html=1;" vertex="1" parent="1">
          <mxGeometry x="650" y="375" width="140" height="30" as="geometry" />
        </mxCell>
        <mxCell id="EorWX3A0NwsQT6hADOKM-40" value="" style="edgeStyle=orthogonalEdgeStyle;rounded=0;orthogonalLoop=1;jettySize=auto;html=1;entryX=0.5;entryY=0;entryDx=0;entryDy=0;" edge="1" parent="1" source="EorWX3A0NwsQT6hADOKM-37" target="EorWX3A0NwsQT6hADOKM-27">
          <mxGeometry relative="1" as="geometry" />
        </mxCell>
        <mxCell id="EorWX3A0NwsQT6hADOKM-42" value="yes, query" style="edgeLabel;html=1;align=center;verticalAlign=middle;resizable=0;points=[];" vertex="1" connectable="0" parent="EorWX3A0NwsQT6hADOKM-40">
          <mxGeometry x="-0.68" y="-1" relative="1" as="geometry">
            <mxPoint as="offset" />
          </mxGeometry>
        </mxCell>
        <mxCell id="EorWX3A0NwsQT6hADOKM-37" value="Low Load" style="rhombus;whiteSpace=wrap;html=1;" vertex="1" parent="1">
          <mxGeometry x="685" y="440" width="70" height="60" as="geometry" />
        </mxCell>
        <mxCell id="EorWX3A0NwsQT6hADOKM-39" value="" style="group" vertex="1" connectable="0" parent="1">
          <mxGeometry x="630" y="530" width="310" height="645" as="geometry" />
        </mxCell>
        <mxCell id="EorWX3A0NwsQT6hADOKM-27" value="&lt;div&gt;&lt;font style=&quot;font-size: 14px;&quot;&gt;&lt;font style=&quot;color: rgb(0, 0, 0);&quot;&gt;OfflineLocalQueue&lt;/font&gt;&lt;font style=&quot;color: rgb(255, 153, 51);&quot;&gt;/&lt;/font&gt;&lt;font style=&quot;color: rgb(255, 0, 0);&quot;&gt;OffLine&lt;/font&gt;&lt;/font&gt;&lt;/div&gt;&lt;div&gt;&lt;font style=&quot;color: rgb(255, 153, 51);&quot;&gt;&lt;br&gt;&lt;/font&gt;&lt;/div&gt;&lt;div&gt;&lt;font style=&quot;color: rgb(255, 153, 51);&quot;&gt;&lt;br&gt;&lt;/font&gt;&lt;/div&gt;&lt;div&gt;&lt;font style=&quot;color: rgb(255, 153, 51);&quot;&gt;&lt;br&gt;&lt;/font&gt;&lt;/div&gt;&lt;div&gt;&lt;font style=&quot;color: rgb(255, 153, 51);&quot;&gt;&lt;br&gt;&lt;/font&gt;&lt;/div&gt;&lt;div&gt;&lt;font style=&quot;color: rgb(255, 153, 51);&quot;&gt;&lt;br&gt;&lt;/font&gt;&lt;/div&gt;" style="rounded=1;whiteSpace=wrap;html=1;fillColor=#fff2cc;strokeColor=#d6b656;" vertex="1" parent="EorWX3A0NwsQT6hADOKM-39">
          <mxGeometry width="180" height="110" as="geometry" />
        </mxCell>
        <mxCell id="EorWX3A0NwsQT6hADOKM-28" value="&lt;b&gt;1&lt;/b&gt;" style="strokeWidth=2;html=1;shape=mxgraph.flowchart.multi-document;whiteSpace=wrap;" vertex="1" parent="EorWX3A0NwsQT6hADOKM-39">
          <mxGeometry x="155" y="36" width="18" height="20" as="geometry" />
        </mxCell>
        <mxCell id="EorWX3A0NwsQT6hADOKM-29" value="&lt;b&gt;2&lt;/b&gt;" style="strokeWidth=2;html=1;shape=mxgraph.flowchart.multi-document;whiteSpace=wrap;" vertex="1" parent="EorWX3A0NwsQT6hADOKM-39">
          <mxGeometry x="125" y="36" width="18" height="20" as="geometry" />
        </mxCell>
        <mxCell id="EorWX3A0NwsQT6hADOKM-30" value="&lt;b&gt;3&lt;/b&gt;" style="strokeWidth=2;html=1;shape=mxgraph.flowchart.multi-document;whiteSpace=wrap;" vertex="1" parent="EorWX3A0NwsQT6hADOKM-39">
          <mxGeometry x="95" y="36" width="18" height="20" as="geometry" />
        </mxCell>
        <mxCell id="EorWX3A0NwsQT6hADOKM-31" value="&lt;b&gt;4&lt;/b&gt;" style="strokeWidth=2;html=1;shape=mxgraph.flowchart.multi-document;whiteSpace=wrap;" vertex="1" parent="EorWX3A0NwsQT6hADOKM-39">
          <mxGeometry x="65" y="36" width="20" height="20" as="geometry" />
        </mxCell>
        <mxCell id="EorWX3A0NwsQT6hADOKM-32" value="&lt;b&gt;5&lt;/b&gt;" style="strokeWidth=2;html=1;shape=mxgraph.flowchart.multi-document;whiteSpace=wrap;" vertex="1" parent="EorWX3A0NwsQT6hADOKM-39">
          <mxGeometry x="35" y="36" width="18" height="20" as="geometry" />
        </mxCell>
        <mxCell id="EorWX3A0NwsQT6hADOKM-33" value="&lt;b&gt;6&lt;/b&gt;" style="strokeWidth=2;html=1;shape=mxgraph.flowchart.multi-document;whiteSpace=wrap;" vertex="1" parent="EorWX3A0NwsQT6hADOKM-39">
          <mxGeometry x="7" y="36" width="18" height="20" as="geometry" />
        </mxCell>
        <mxCell id="EorWX3A0NwsQT6hADOKM-91" value="&lt;font style=&quot;font-size: 14px;&quot;&gt;QueueDownLoader&lt;/font&gt;" style="rounded=0;whiteSpace=wrap;html=1;" vertex="1" parent="EorWX3A0NwsQT6hADOKM-39">
          <mxGeometry x="20" y="70" width="140" height="30" as="geometry" />
        </mxCell>
        <mxCell id="EorWX3A0NwsQT6hADOKM-45" value="&lt;font style=&quot;font-size: 14px;&quot;&gt;&lt;b&gt;DynamicExecutorPool&lt;/b&gt;&lt;/font&gt;&lt;div&gt;&lt;br&gt;&lt;div&gt;Online/Sync | NearLine/Async | Offline/Async&lt;/div&gt;&lt;/div&gt;" style="rounded=1;whiteSpace=wrap;html=1;fillColor=#ffff88;strokeColor=#36393d;" vertex="1" parent="1">
          <mxGeometry x="910" y="375" width="250" height="70" as="geometry" />
        </mxCell>
        <mxCell id="EorWX3A0NwsQT6hADOKM-46" value="&lt;font style=&quot;font-size: 14px;&quot;&gt;&lt;b&gt;ExecutorScheduler&lt;/b&gt;&lt;/font&gt;" style="rounded=1;whiteSpace=wrap;html=1;fillColor=#ffff88;strokeColor=#36393d;" vertex="1" parent="1">
          <mxGeometry x="910" y="270" width="250" height="70" as="geometry" />
        </mxCell>
        <mxCell id="EorWX3A0NwsQT6hADOKM-47" value="&lt;span style=&quot;font-size: 14px;&quot;&gt;&lt;b&gt;StaticExecutorPool&lt;/b&gt;&lt;/span&gt;&lt;br&gt;&lt;div&gt;Online/Sync&lt;/div&gt;" style="rounded=1;whiteSpace=wrap;html=1;fillColor=#ffff88;strokeColor=#36393d;" vertex="1" parent="1">
          <mxGeometry x="910" y="480" width="250" height="70" as="geometry" />
        </mxCell>
        <mxCell id="EorWX3A0NwsQT6hADOKM-49" value="&lt;font style=&quot;font-size: 18px;&quot;&gt;&lt;b&gt;ExecutorEngine&lt;/b&gt;&lt;/font&gt;" style="text;html=1;align=center;verticalAlign=middle;whiteSpace=wrap;rounded=0;" vertex="1" parent="1">
          <mxGeometry x="1005" y="220" width="60" height="30" as="geometry" />
        </mxCell>
        <mxCell id="EorWX3A0NwsQT6hADOKM-51" value="&lt;font style=&quot;font-size: 16px;&quot;&gt;Thread/Worker-1&lt;/font&gt;" style="rounded=1;whiteSpace=wrap;html=1;fillColor=#ffcccc;strokeColor=#36393d;" vertex="1" parent="1">
          <mxGeometry x="1590" y="226" width="140" height="60" as="geometry" />
        </mxCell>
        <mxCell id="EorWX3A0NwsQT6hADOKM-52" value="&lt;font style=&quot;font-size: 16px;&quot;&gt;Thread/Worker-2&lt;/font&gt;" style="rounded=1;whiteSpace=wrap;html=1;fillColor=#ffcccc;strokeColor=#36393d;" vertex="1" parent="1">
          <mxGeometry x="1590" y="290" width="140" height="60" as="geometry" />
        </mxCell>
        <mxCell id="EorWX3A0NwsQT6hADOKM-53" value="&lt;font style=&quot;font-size: 16px;&quot;&gt;Thread/Worker-3&lt;/font&gt;" style="rounded=1;whiteSpace=wrap;html=1;fillColor=#ffcccc;strokeColor=#36393d;" vertex="1" parent="1">
          <mxGeometry x="1590" y="355" width="140" height="60" as="geometry" />
        </mxCell>
        <mxCell id="EorWX3A0NwsQT6hADOKM-54" value="&lt;font style=&quot;font-size: 16px;&quot;&gt;Thread/Worker-N&lt;/font&gt;" style="rounded=1;whiteSpace=wrap;html=1;fillColor=#ffcccc;strokeColor=#36393d;" vertex="1" parent="1">
          <mxGeometry x="1590" y="430" width="140" height="60" as="geometry" />
        </mxCell>
        <mxCell id="EorWX3A0NwsQT6hADOKM-56" value="&lt;font style=&quot;font-size: 16px;&quot;&gt;ExecutorPool&lt;/font&gt;" style="text;html=1;align=center;verticalAlign=middle;whiteSpace=wrap;rounded=0;" vertex="1" parent="1">
          <mxGeometry x="1630" y="196" width="60" height="30" as="geometry" />
        </mxCell>
        <mxCell id="EorWX3A0NwsQT6hADOKM-57" value="&lt;font style=&quot;font-size: 16px;&quot;&gt;......&lt;/font&gt;" style="text;html=1;align=center;verticalAlign=middle;whiteSpace=wrap;rounded=0;" vertex="1" parent="1">
          <mxGeometry x="1630" y="404" width="60" height="30" as="geometry" />
        </mxCell>
        <mxCell id="EorWX3A0NwsQT6hADOKM-60" value="" style="edgeStyle=orthogonalEdgeStyle;rounded=0;orthogonalLoop=1;jettySize=auto;html=1;" edge="1" parent="1" source="EorWX3A0NwsQT6hADOKM-58" target="EorWX3A0NwsQT6hADOKM-59">
          <mxGeometry relative="1" as="geometry" />
        </mxCell>
        <mxCell id="EorWX3A0NwsQT6hADOKM-61" value="Analysis&amp;amp;Decision" style="edgeLabel;html=1;align=center;verticalAlign=middle;resizable=0;points=[];" vertex="1" connectable="0" parent="EorWX3A0NwsQT6hADOKM-60">
          <mxGeometry x="-0.3111" y="-3" relative="1" as="geometry">
            <mxPoint x="-3" y="-6" as="offset" />
          </mxGeometry>
        </mxCell>
        <mxCell id="EorWX3A0NwsQT6hADOKM-58" value="&lt;font style=&quot;font-size: 16px;&quot;&gt;LocalDB&lt;/font&gt;&lt;div&gt;ThreadNum | QPS | RT | Load&lt;/div&gt;" style="rounded=1;whiteSpace=wrap;html=1;strokeColor=light-dark(#FEE89C,#EDEDED);fillColor=light-dark(#fee89c, #ededed);" vertex="1" parent="1">
          <mxGeometry x="1320" y="342.5" width="170" height="60" as="geometry" />
        </mxCell>
        <mxCell id="EorWX3A0NwsQT6hADOKM-64" value="" style="edgeStyle=orthogonalEdgeStyle;rounded=0;orthogonalLoop=1;jettySize=auto;html=1;entryX=0;entryY=0.5;entryDx=0;entryDy=0;" edge="1" parent="1" source="EorWX3A0NwsQT6hADOKM-59" target="EorWX3A0NwsQT6hADOKM-58">
          <mxGeometry relative="1" as="geometry">
            <Array as="points">
              <mxPoint x="1300" y="267.5" />
              <mxPoint x="1300" y="372.5" />
            </Array>
          </mxGeometry>
        </mxCell>
        <mxCell id="EorWX3A0NwsQT6hADOKM-67" value="" style="edgeStyle=orthogonalEdgeStyle;rounded=0;orthogonalLoop=1;jettySize=auto;html=1;" edge="1" parent="1">
          <mxGeometry relative="1" as="geometry">
            <mxPoint x="1490.0000000000002" y="275.9999999999999" as="sourcePoint" />
            <mxPoint x="1580" y="276" as="targetPoint" />
            <Array as="points">
              <mxPoint x="1560" y="276" />
              <mxPoint x="1560" y="276" />
            </Array>
          </mxGeometry>
        </mxCell>
        <mxCell id="EorWX3A0NwsQT6hADOKM-69" value="ScaleDown" style="edgeLabel;html=1;align=center;verticalAlign=middle;resizable=0;points=[];" vertex="1" connectable="0" parent="EorWX3A0NwsQT6hADOKM-67">
          <mxGeometry x="-0.3646" y="-1" relative="1" as="geometry">
            <mxPoint x="11" as="offset" />
          </mxGeometry>
        </mxCell>
        <mxCell id="EorWX3A0NwsQT6hADOKM-70" value="" style="edgeStyle=orthogonalEdgeStyle;rounded=0;orthogonalLoop=1;jettySize=auto;html=1;entryX=0;entryY=0.194;entryDx=0;entryDy=0;entryPerimeter=0;" edge="1" parent="1" source="EorWX3A0NwsQT6hADOKM-59" target="EorWX3A0NwsQT6hADOKM-55">
          <mxGeometry relative="1" as="geometry">
            <Array as="points">
              <mxPoint x="1510" y="250" />
              <mxPoint x="1510" y="250" />
            </Array>
          </mxGeometry>
        </mxCell>
        <mxCell id="EorWX3A0NwsQT6hADOKM-71" value="ScaleUp" style="edgeLabel;html=1;align=center;verticalAlign=middle;resizable=0;points=[];" vertex="1" connectable="0" parent="EorWX3A0NwsQT6hADOKM-70">
          <mxGeometry x="-0.2014" y="2" relative="1" as="geometry">
            <mxPoint as="offset" />
          </mxGeometry>
        </mxCell>
        <mxCell id="EorWX3A0NwsQT6hADOKM-59" value="&lt;span style=&quot;font-size: 16px;&quot;&gt;Manager&lt;/span&gt;" style="rounded=1;whiteSpace=wrap;html=1;fillColor=light-dark(#fde89b, #281d00);strokeColor=#d6b656;" vertex="1" parent="1">
          <mxGeometry x="1320" y="237.5" width="170" height="65" as="geometry" />
        </mxCell>
        <mxCell id="EorWX3A0NwsQT6hADOKM-75" value="&lt;font style=&quot;font-size: 18px;&quot;&gt;&lt;b&gt;DynamicExecutorPool&lt;/b&gt;&lt;/font&gt;" style="text;html=1;align=center;verticalAlign=middle;whiteSpace=wrap;rounded=0;" vertex="1" parent="1">
          <mxGeometry x="1460" y="150" width="60" height="30" as="geometry" />
        </mxCell>
        <mxCell id="EorWX3A0NwsQT6hADOKM-76" value="&lt;font style=&quot;font-size: 14px;&quot;&gt;Online/Sync | Offline/Async&lt;/font&gt;" style="text;html=1;align=center;verticalAlign=middle;whiteSpace=wrap;rounded=0;" vertex="1" parent="1">
          <mxGeometry x="1392.5" y="170" width="195" height="30" as="geometry" />
        </mxCell>
        <mxCell id="EorWX3A0NwsQT6hADOKM-77" value="&lt;font style=&quot;font-size: 16px;&quot;&gt;Thread/Worker-2&lt;/font&gt;" style="rounded=1;whiteSpace=wrap;html=1;fillColor=#ffcccc;strokeColor=#36393d;" vertex="1" parent="1">
          <mxGeometry x="1590" y="566" width="140" height="60" as="geometry" />
        </mxCell>
        <mxCell id="EorWX3A0NwsQT6hADOKM-78" value="&lt;font style=&quot;font-size: 16px;&quot;&gt;Thread/Worker-4&lt;/font&gt;" style="rounded=1;whiteSpace=wrap;html=1;fillColor=#ffcccc;strokeColor=#36393d;" vertex="1" parent="1">
          <mxGeometry x="1590" y="630" width="140" height="60" as="geometry" />
        </mxCell>
        <mxCell id="EorWX3A0NwsQT6hADOKM-79" value="&lt;font style=&quot;font-size: 16px;&quot;&gt;Thread/Worker-N&lt;/font&gt;" style="rounded=1;whiteSpace=wrap;html=1;fillColor=#ffcccc;strokeColor=#36393d;" vertex="1" parent="1">
          <mxGeometry x="1590" y="694" width="140" height="60" as="geometry" />
        </mxCell>
        <mxCell id="EorWX3A0NwsQT6hADOKM-80" value="&lt;font style=&quot;font-size: 16px;&quot;&gt;Thread/Worker-1&lt;/font&gt;" style="rounded=1;whiteSpace=wrap;html=1;fillColor=#ffcccc;strokeColor=#36393d;" vertex="1" parent="1">
          <mxGeometry x="1350" y="566" width="140" height="60" as="geometry" />
        </mxCell>
        <mxCell id="EorWX3A0NwsQT6hADOKM-81" value="&lt;font style=&quot;font-size: 16px;&quot;&gt;Thread/Worker-3&lt;/font&gt;" style="rounded=1;whiteSpace=wrap;html=1;fillColor=#ffcccc;strokeColor=#36393d;" vertex="1" parent="1">
          <mxGeometry x="1350" y="630" width="140" height="60" as="geometry" />
        </mxCell>
        <mxCell id="EorWX3A0NwsQT6hADOKM-82" value="&lt;font style=&quot;font-size: 16px;&quot;&gt;......&lt;/font&gt;" style="text;html=1;align=center;verticalAlign=middle;whiteSpace=wrap;rounded=0;" vertex="1" parent="1">
          <mxGeometry x="1390" y="709" width="60" height="30" as="geometry" />
        </mxCell>
        <mxCell id="EorWX3A0NwsQT6hADOKM-85" value="&lt;b&gt;&lt;font style=&quot;font-size: 18px;&quot;&gt;ExecutorScheduler&lt;/font&gt;&lt;/b&gt;" style="rounded=1;whiteSpace=wrap;html=1;fillColor=#ffff88;strokeColor=#36393d;" vertex="1" parent="1">
          <mxGeometry x="1270" y="80" width="480" height="60" as="geometry" />
        </mxCell>
        <mxCell id="EorWX3A0NwsQT6hADOKM-88" value="&lt;b&gt;&lt;font style=&quot;font-size: 18px;&quot;&gt;ExecutorEngine&lt;/font&gt;&lt;/b&gt;" style="text;html=1;align=center;verticalAlign=middle;whiteSpace=wrap;rounded=0;" vertex="1" parent="1">
          <mxGeometry x="1475" y="45" width="60" height="30" as="geometry" />
        </mxCell>
        <mxCell id="EorWX3A0NwsQT6hADOKM-90" value="&lt;b&gt;&lt;font style=&quot;font-size: 18px;&quot;&gt;Local Priority Queue&lt;/font&gt;&lt;/b&gt;" style="text;html=1;align=center;verticalAlign=middle;whiteSpace=wrap;rounded=0;" vertex="1" parent="1">
          <mxGeometry x="621.25" y="165" width="197.5" height="30" as="geometry" />
        </mxCell>
        <mxCell id="EorWX3A0NwsQT6hADOKM-95" value="" style="edgeStyle=orthogonalEdgeStyle;rounded=0;orthogonalLoop=1;jettySize=auto;html=1;" edge="1" parent="1" source="EorWX3A0NwsQT6hADOKM-27" target="EorWX3A0NwsQT6hADOKM-47">
          <mxGeometry relative="1" as="geometry" />
        </mxCell>
        <mxCell id="EorWX3A0NwsQT6hADOKM-98" value="Execute" style="edgeLabel;html=1;align=center;verticalAlign=middle;resizable=0;points=[];" vertex="1" connectable="0" parent="EorWX3A0NwsQT6hADOKM-95">
          <mxGeometry x="0.1301" relative="1" as="geometry">
            <mxPoint as="offset" />
          </mxGeometry>
        </mxCell>
        <mxCell id="EorWX3A0NwsQT6hADOKM-104" value="" style="endArrow=none;dashed=1;html=1;dashPattern=1 3;strokeWidth=2;rounded=0;" edge="1" parent="1">
          <mxGeometry width="50" height="50" relative="1" as="geometry">
            <mxPoint x="340" y="740" as="sourcePoint" />
            <mxPoint x="340" as="targetPoint" />
          </mxGeometry>
        </mxCell>
        <mxCell id="EorWX3A0NwsQT6hADOKM-105" value="" style="endArrow=none;dashed=1;html=1;dashPattern=1 3;strokeWidth=2;rounded=0;" edge="1" parent="1">
          <mxGeometry width="50" height="50" relative="1" as="geometry">
            <mxPoint x="540" y="742" as="sourcePoint" />
            <mxPoint x="540" y="2" as="targetPoint" />
          </mxGeometry>
        </mxCell>
        <mxCell id="EorWX3A0NwsQT6hADOKM-106" value="" style="endArrow=none;dashed=1;html=1;dashPattern=1 3;strokeWidth=2;rounded=0;" edge="1" parent="1">
          <mxGeometry width="50" height="50" relative="1" as="geometry">
            <mxPoint x="1220" y="742.5" as="sourcePoint" />
            <mxPoint x="1220" y="2.5" as="targetPoint" />
          </mxGeometry>
        </mxCell>
        <mxCell id="EorWX3A0NwsQT6hADOKM-107" value="&lt;b&gt;&lt;font style=&quot;font-size: 20px;&quot;&gt;Caller&lt;/font&gt;&lt;/b&gt;" style="text;html=1;align=center;verticalAlign=middle;whiteSpace=wrap;rounded=0;" vertex="1" parent="1">
          <mxGeometry x="190" y="15" width="60" height="30" as="geometry" />
        </mxCell>
        <mxCell id="EorWX3A0NwsQT6hADOKM-108" value="&lt;b&gt;&lt;font style=&quot;font-size: 20px;&quot;&gt;Channel&lt;/font&gt;&lt;/b&gt;" style="text;html=1;align=center;verticalAlign=middle;whiteSpace=wrap;rounded=0;" vertex="1" parent="1">
          <mxGeometry x="420" y="15" width="60" height="30" as="geometry" />
        </mxCell>
        <mxCell id="EorWX3A0NwsQT6hADOKM-109" value="&lt;b&gt;&lt;font style=&quot;font-size: 20px;&quot;&gt;Callee&lt;/font&gt;&lt;/b&gt;" style="text;html=1;align=center;verticalAlign=middle;whiteSpace=wrap;rounded=0;" vertex="1" parent="1">
          <mxGeometry x="830" y="10" width="60" height="30" as="geometry" />
        </mxCell>
        <mxCell id="EorWX3A0NwsQT6hADOKM-111" value="&lt;b&gt;&lt;font style=&quot;font-size: 18px;&quot;&gt;App3&lt;/font&gt;&lt;/b&gt;" style="text;html=1;align=center;verticalAlign=middle;whiteSpace=wrap;rounded=0;" vertex="1" parent="1">
          <mxGeometry x="840" y="80" width="60" height="30" as="geometry" />
        </mxCell>
        <mxCell id="EorWX3A0NwsQT6hADOKM-112" value="" style="endArrow=classic;html=1;rounded=0;entryX=0;entryY=0.096;entryDx=0;entryDy=0;entryPerimeter=0;strokeWidth=3;" edge="1" parent="1" target="EorWX3A0NwsQT6hADOKM-86">
          <mxGeometry width="50" height="50" relative="1" as="geometry">
            <mxPoint x="1170" y="210" as="sourcePoint" />
            <mxPoint x="1220" y="160" as="targetPoint" />
          </mxGeometry>
        </mxCell>
        <mxCell id="EorWX3A0NwsQT6hADOKM-113" value="" style="endArrow=classic;html=1;rounded=0;entryX=0;entryY=0.918;entryDx=0;entryDy=0;entryPerimeter=0;strokeWidth=3;" edge="1" parent="1" target="EorWX3A0NwsQT6hADOKM-86">
          <mxGeometry width="50" height="50" relative="1" as="geometry">
            <mxPoint x="1170" y="560" as="sourcePoint" />
            <mxPoint x="1220" y="510" as="targetPoint" />
          </mxGeometry>
        </mxCell>
        <mxCell id="EorWX3A0NwsQT6hADOKM-116" value="" style="endArrow=classic;html=1;rounded=0;entryX=0;entryY=0.5;entryDx=0;entryDy=0;exitX=1;exitY=0.5;exitDx=0;exitDy=0;" edge="1" parent="1" source="EorWX3A0NwsQT6hADOKM-8" target="EorWX3A0NwsQT6hADOKM-11">
          <mxGeometry width="50" height="50" relative="1" as="geometry">
            <mxPoint x="320" y="340" as="sourcePoint" />
            <mxPoint x="370" y="290" as="targetPoint" />
          </mxGeometry>
        </mxCell>
        <mxCell id="EorWX3A0NwsQT6hADOKM-118" value="&lt;font style=&quot;font-size: 12px;&quot;&gt;MessageChannel&lt;/font&gt;" style="edgeLabel;html=1;align=center;verticalAlign=middle;resizable=0;points=[];" vertex="1" connectable="0" parent="EorWX3A0NwsQT6hADOKM-116">
          <mxGeometry x="-0.3761" y="-3" relative="1" as="geometry">
            <mxPoint x="17" y="6" as="offset" />
          </mxGeometry>
        </mxCell>
        <mxCell id="EorWX3A0NwsQT6hADOKM-117" value="" style="endArrow=classic;html=1;rounded=0;entryX=0;entryY=0.75;entryDx=0;entryDy=0;exitX=1;exitY=0.75;exitDx=0;exitDy=0;" edge="1" parent="1" source="EorWX3A0NwsQT6hADOKM-9" target="EorWX3A0NwsQT6hADOKM-11">
          <mxGeometry width="50" height="50" relative="1" as="geometry">
            <mxPoint x="320" y="430" as="sourcePoint" />
            <mxPoint x="370" y="380" as="targetPoint" />
          </mxGeometry>
        </mxCell>
        <mxCell id="EorWX3A0NwsQT6hADOKM-119" value="&lt;font style=&quot;font-size: 12px;&quot;&gt;MessageChannel&lt;/font&gt;" style="edgeLabel;html=1;align=center;verticalAlign=middle;resizable=0;points=[];" vertex="1" connectable="0" parent="EorWX3A0NwsQT6hADOKM-117">
          <mxGeometry x="0.1881" y="-3" relative="1" as="geometry">
            <mxPoint x="-17" y="-1" as="offset" />
          </mxGeometry>
        </mxCell>
        <mxCell id="EorWX3A0NwsQT6hADOKM-121" value="" style="endArrow=classic;html=1;rounded=0;entryX=0;entryY=0.75;entryDx=0;entryDy=0;" edge="1" parent="1" target="EorWX3A0NwsQT6hADOKM-12">
          <mxGeometry width="50" height="50" relative="1" as="geometry">
            <mxPoint x="280" y="320" as="sourcePoint" />
            <mxPoint x="330" y="270" as="targetPoint" />
          </mxGeometry>
        </mxCell>
        <mxCell id="EorWX3A0NwsQT6hADOKM-122" value="&lt;font style=&quot;font-size: 14px;&quot;&gt;Http&lt;/font&gt;" style="edgeLabel;html=1;align=center;verticalAlign=middle;resizable=0;points=[];" vertex="1" connectable="0" parent="EorWX3A0NwsQT6hADOKM-121">
          <mxGeometry x="-0.048" y="-2" relative="1" as="geometry">
            <mxPoint as="offset" />
          </mxGeometry>
        </mxCell>
      </root>
    </mxGraphModel>
  </diagram>
</mxfile>
